<svg width="19" height="11" viewBox="0 0 19 11" fill="none" xmlns="http://www.w3.org/2000/svg">
<path d="M9.5 5.63161C9.5 6.74969 10.1805 7.57761 10.9008 8.05732C11.6318 8.54411 12.5551 8.79643 13.5 8.79643C14.4449 8.79643 15.3682 8.54411 16.0992 8.05732C16.8195 7.57761 17.5 6.74969 17.5 5.63161C17.5 4.51353 16.8195 3.68561 16.0992 3.2059C15.3682 2.71911 14.4449 2.46679 13.5 2.46679C12.5551 2.46679 11.6318 2.71911 10.9008 3.2059C10.1805 3.68561 9.5 4.51353 9.5 5.63161ZM9.5 5.63161C9.5 4.51353 8.81954 3.68561 8.09918 3.2059C7.36818 2.71911 6.44485 2.46679 5.5 2.46679C4.55515 2.46679 3.63182 2.71911 2.90082 3.2059C2.18046 3.68561 1.5 4.51353 1.5 5.63161C1.5 6.74969 2.18046 7.57761 2.90082 8.05732C3.63182 8.54411 4.55514 8.79643 5.5 8.79643C6.44485 8.79643 7.36818 8.54411 8.09918 8.05732C8.81954 7.57761 9.5 6.74969 9.5 5.63161Z" stroke="url(#paint0_linear_80_111)" stroke-width="3"/>
<defs>
<linearGradient id="paint0_linear_80_111" x1="1.47352e-07" y1="5.96457" x2="19" y2="5.96457" gradientUnits="userSpaceOnUse">
<stop stop-color="#C03232"/>
<stop offset="1" stop-color="#FF6969"/>
</linearGradient>
</defs>
</svg>
